<svg version="1.1" id="Layer_1" xmlns="http://www.w3.org/2000/svg" xmlns:xlink="http://www.w3.org/1999/xlink" x="0px" y="0px" viewBox="0 0 350.98 68.93" style="enable-background:new 0 0 350.98 68.93;" xml:space="preserve">
<style type="text/css">
	.st0{fill:#FFFFFF;}
	.st1{fill:#D61C0D;}
	.st2{fill:#002C42;}
</style>
<g>
	<g>
		<path class="st0" d="M5.66,6.4H63.5c0,0,12.81-0.98,19.49,8.46c0,0,5.07,3.47,4.72,17.17c-0.36,13.71-9.52,15.75-14.51,17.62    c0,0-6.41,1.15-9.88,1.24H46.15c0,0-10.59-0.35-12.01-13.61c0,0-13.7-0.89-14.15-15.57C19.99,21.71,5.66,20.64,5.66,6.4"/>
		<path class="st1" d="M114.87,6.36H76.58c-4.92-2.18-9.26-2.23-9.42-2.23h0L5.38,4.21c-1.13,0-2.05,0.88-2.15,1.98    C3.19,6.31,3.17,6.43,3.16,6.56L3.1,7.67c-0.01,0.24-0.25,6.05,4.31,10.6c2.51,2.5,5.94,4.1,10.17,4.79    C18.29,27.09,21,36.91,30.65,38.9c0.14,0.03,0.29,0.04,0.44,0.04l1.58,0c0.69,6.1,3.85,9.99,7.36,12.33l-2.64,10.47    c0,1.84,1.49,3.33,3.34,3.33h63.54c1.84,0,3.33-1.49,3.33-3.33l10.62-52.06C118.21,7.85,116.72,6.36,114.87,6.36 M37.03,38.94    l27.41,0.01h0c1.2,0,2.17-0.97,2.17-2.17c0-1.2-0.97-2.17-2.17-2.17l-33.12-0.01c-6.09-1.39-8.39-7.63-9.21-11.16    c0.2,0,0.38,0.02,0.58,0.02c0.73,0,1.48-0.02,2.24-0.06l23.47-0.15c1.2-0.01,2.17-0.99,2.16-2.19c-0.01-1.2-0.98-2.16-2.17-2.16    h-0.01L24.8,19.05c-6.55,0.36-11.34-0.93-14.28-3.81c-2.48-2.45-2.97-5.41-3.06-6.69l59.71-0.07c0.72,0,17.03,0.22,19.15,19.02    c0.72,6.35-0.74,11.51-4.31,15.32c-5.74,6.11-15.29,7.37-20.14,7.13l-13.42-0.04C47.39,49.78,38.4,48.41,37.03,38.94"/>
		<g>
			<path class="st2" d="M139.64,57.3V24.2h-11.68v-5.62h28.87v5.62H145.2V57.3H139.64z"/>
			<path class="st2" d="M166.96,37.58h6.5c4.68,0,7-3.36,7-6.72c0-3.3-2.31-6.66-7-6.66h-8.54v32.94h-5.51V18.58h14.05     c8.37,0,12.56,6.17,12.56,12.28c0,5.45-3.36,10.63-9.97,11.79l12.17,14.49H181l-14.05-16.91V37.58z"/>
			<path class="st2" d="M194.33,51.57h17.9v5.56h-23.52V18.63h23.47v5.56h-17.85v10.85h17.46v5.62h-17.46V51.57z"/>
			<path class="st2" d="M245.34,32.4c-1.54-6.23-7.49-8.48-12.39-8.48c-7.55,0-13.39,5.89-13.39,13.99     c0,8.15,5.84,14.16,13.39,14.16c4.74,0,9.81-2.2,12.12-7.82h-14.27v-5.56h20.77c-0.28,3.25-0.55,5.4-1.05,6.67v-0.06     c-2.64,7.38-10.58,12.12-17.57,12.12c-10.8,0-18.95-8.15-18.95-19.5c0-11.4,8.32-19.56,18.95-19.56c7.38,0,16.31,3.8,18.34,14.05     H245.34z"/>
			<path class="st2" d="M285.27,32.4c-1.54-6.23-7.49-8.48-12.39-8.48c-7.55,0-13.39,5.89-13.39,13.99     c0,8.15,5.84,14.16,13.39,14.16c4.74,0,9.81-2.2,12.12-7.82h-14.27v-5.56h20.77c-0.28,3.25-0.55,5.4-1.05,6.67v-0.06     c-2.64,7.38-10.58,12.12-17.57,12.12c-10.8,0-18.95-8.15-18.95-19.5c0-11.4,8.32-19.56,18.95-19.56c7.38,0,16.31,3.8,18.34,14.05     H285.27z"/>
			<path class="st2" d="M299.31,23.92c3.53-3.58,8.48-5.84,13.88-5.84c5.45,0,10.36,2.26,13.94,5.84c3.47,3.58,5.73,8.48,5.73,13.94     s-2.26,10.36-5.73,13.94c-3.58,3.64-8.48,5.84-13.94,5.84c-5.4,0-10.36-2.2-13.88-5.84c-3.47-3.58-5.73-8.48-5.73-13.94     S295.84,27.5,299.31,23.92z M323.16,27.89c-2.59-2.59-6.17-4.19-9.97-4.19c-3.8,0-7.33,1.6-9.86,4.19     c-2.53,2.53-4.13,6.06-4.13,9.97c0,3.91,1.6,7.44,4.13,9.97c2.53,2.59,6.06,4.19,9.86,4.19c3.8,0,7.38-1.6,9.97-4.19     c2.48-2.53,4.08-6,4.08-9.97C327.24,33.89,325.64,30.42,323.16,27.89z"/>
		</g>
	</g>
	<g>
		<g id="_x38_1bvMl_2_">
			<g>
				<path class="st2" d="M340.99,25.67c-3.83-0.04-6.97-3.22-7.02-7.09c-0.04-3.79,3.13-6.96,6.97-6.98      c3.87-0.02,7.13,3.26,7.1,7.12C348.01,22.55,344.81,25.71,340.99,25.67z M347.03,18.6c-0.02-3.47-2.64-6.05-6.17-6.05      c-3.33,0-5.91,2.66-5.89,6.08c0.02,3.37,2.68,6.05,6.03,6.07C344.42,24.73,347.05,22.08,347.03,18.6z"/>
				<path class="st2" d="M345.61,22.01c-1.49,0.39-2.27,0.02-2.9-0.84c-0.37-0.51-0.85-0.94-1.25-1.43      c-0.39-0.47-0.9-0.43-1.37-0.32c-0.57,0.14-0.28,0.67-0.33,1.03c-0.04,0.36-0.03,0.73-0.01,1.09c0.03,0.49-0.22,0.62-0.66,0.6      c-0.39-0.02-0.73-0.01-0.73-0.55c0.01-2.09,0.01-4.18,0.01-6.26c0-0.37,0.13-0.62,0.55-0.59c1.26,0.1,2.54-0.18,3.78,0.27      c0.75,0.27,1.26,0.72,1.37,1.52c0.12,0.82-0.08,1.61-0.83,1.99c-0.83,0.42-0.7,0.75-0.12,1.25      C343.9,20.45,344.66,21.15,345.61,22.01z M339.76,17c-0.06,0.75-0.15,1.43,0.96,1.32c0.93-0.09,1.9-0.04,1.91-1.34      c0.01-1.21-0.92-1.07-1.74-1.16C339.9,15.71,339.56,16.1,339.76,17z"/>
			</g>
		</g>
	</g>
</g>
</svg>
	
		
		
		
			
			
			
			
			
			
		
	
	
		
			
				
				
			
		
	

